<svg width="1200" height="360" viewBox="0 0 1200 360" fill="none" xmlns="http://www.w3.org/2000/svg" role="img" aria-labelledby="title desc">
  <title id="title">Lucas Lagrimante — Software Developer</title>
  <desc id="desc">Banner escuro com detalhes verdes e uma janela de código apresentando as tecnologias favoritas de Lucas.</desc>
  <defs>
    <linearGradient id="bg" x1="40" y1="20" x2="1160" y2="340" gradientUnits="userSpaceOnUse">
      <stop stop-color="#08090B"/>
      <stop offset="0.55" stop-color="#0E1515"/>
      <stop offset="1" stop-color="#10251E"/>
    </linearGradient>
    <linearGradient id="accent" x1="78" y1="100" x2="520" y2="250" gradientUnits="userSpaceOnUse">
      <stop stop-color="#6EE7B7"/>
      <stop offset="1" stop-color="#34D399"/>
    </linearGradient>
    <radialGradient id="glow" cx="0" cy="0" r="1" gradientUnits="userSpaceOnUse" gradientTransform="translate(1050 72) rotate(135) scale(420 360)">
      <stop stop-color="#34D399" stop-opacity="0.22"/>
      <stop offset="1" stop-color="#34D399" stop-opacity="0"/>
    </radialGradient>
    <pattern id="grid" width="28" height="28" patternUnits="userSpaceOnUse">
      <path d="M 28 0 L 0 0 0 28" fill="none" stroke="#6EE7B7" stroke-opacity="0.055" stroke-width="1"/>
    </pattern>
    <filter id="shadow" x="-20%" y="-20%" width="140%" height="140%">
      <feDropShadow dx="0" dy="14" stdDeviation="18" flood-color="#000000" flood-opacity="0.38"/>
    </filter>
  </defs>

  <rect width="1200" height="360" rx="22" fill="url(#bg)"/>
  <rect width="1200" height="360" rx="22" fill="url(#glow)"/>
  <rect width="1200" height="360" rx="22" fill="url(#grid)"/>
  <rect x="1" y="1" width="1198" height="358" rx="21" stroke="#6EE7B7" stroke-opacity="0.22" stroke-width="2"/>

  <g transform="translate(72 74)">
    <rect width="54" height="6" rx="3" fill="url(#accent)"/>
    <text x="0" y="62" fill="#E7EAF0" font-family="Inter, Segoe UI, Arial, sans-serif" font-size="48" font-weight="750" letter-spacing="-1.5">Lucas Lagrimante</text>
    <text x="1" y="100" fill="#6EE7B7" font-family="JetBrains Mono, Consolas, monospace" font-size="17" font-weight="600" letter-spacing="3">SOFTWARE DEVELOPER</text>
    <text x="0" y="155" fill="#A8B3C4" font-family="Inter, Segoe UI, Arial, sans-serif" font-size="20">Produtos úteis. Código sólido. Privacidade por padrão.</text>
    <g transform="translate(0 184)">
      <circle cx="7" cy="7" r="7" fill="#34D399"/>
      <text x="24" y="13" fill="#D8DEE9" font-family="JetBrains Mono, Consolas, monospace" font-size="15">Juiz de Fora · MG · Brasil</text>
    </g>
  </g>

  <g transform="translate(705 56)" filter="url(#shadow)">
    <rect width="430" height="250" rx="14" fill="#0E1013" stroke="#2A343B" stroke-width="2"/>
    <path d="M0 44H430" stroke="#2A343B" stroke-width="2"/>
    <circle cx="22" cy="22" r="5" fill="#F87171"/>
    <circle cx="42" cy="22" r="5" fill="#FBBF24"/>
    <circle cx="62" cy="22" r="5" fill="#34D399"/>
    <text x="156" y="27" fill="#657080" font-family="JetBrains Mono, Consolas, monospace" font-size="12">lucas.profile.ts</text>

    <g font-family="JetBrains Mono, Consolas, monospace" font-size="14">
      <text x="24" y="79" fill="#8A94A6">01</text>
      <text x="57" y="79" fill="#C792EA">const</text>
      <text x="105" y="79" fill="#E7EAF0"> lucas </text>
      <text x="157" y="79" fill="#89DDFF">=</text>
      <text x="173" y="79" fill="#E7EAF0"> {</text>

      <text x="24" y="109" fill="#8A94A6">02</text>
      <text x="73" y="109" fill="#82AAFF">core</text>
      <text x="109" y="109" fill="#E7EAF0">: [</text>
      <text x="135" y="109" fill="#C3E88D">"PHP"</text>
      <text x="176" y="109" fill="#E7EAF0">, </text>
      <text x="192" y="109" fill="#C3E88D">"PostgreSQL"</text>
      <text x="295" y="109" fill="#E7EAF0">, </text>
      <text x="311" y="109" fill="#C3E88D">"jQuery"</text>
      <text x="374" y="109" fill="#E7EAF0">],</text>

      <text x="24" y="139" fill="#8A94A6">03</text>
      <text x="73" y="139" fill="#82AAFF">personal</text>
      <text x="143" y="139" fill="#E7EAF0">: [</text>
      <text x="169" y="139" fill="#C3E88D">"React"</text>
      <text x="224" y="139" fill="#E7EAF0">, </text>
      <text x="240" y="139" fill="#C3E88D">"Supabase"</text>
      <text x="319" y="139" fill="#E7EAF0">],</text>

      <text x="24" y="169" fill="#8A94A6">04</text>
      <text x="73" y="169" fill="#82AAFF">cloud</text>
      <text x="117" y="169" fill="#E7EAF0">: [</text>
      <text x="143" y="169" fill="#C3E88D">"Cloudflare"</text>
      <text x="238" y="169" fill="#E7EAF0">, </text>
      <text x="254" y="169" fill="#C3E88D">"Claude Code"</text>
      <text x="357" y="169" fill="#E7EAF0">],</text>

      <text x="24" y="199" fill="#8A94A6">05</text>
      <text x="73" y="199" fill="#82AAFF">building</text>
      <text x="143" y="199" fill="#E7EAF0">: [</text>
      <text x="169" y="199" fill="#C3E88D">"MinhaGrana"</text>
      <text x="272" y="199" fill="#E7EAF0">, </text>
      <text x="288" y="199" fill="#C3E88D">"sharenote"</text>
      <text x="383" y="199" fill="#E7EAF0">]</text>

      <text x="24" y="229" fill="#8A94A6">06</text>
      <text x="57" y="229" fill="#E7EAF0">}</text>
    </g>
  </g>

  <path d="M1134 318H1084" stroke="#34D399" stroke-width="3" stroke-linecap="round"/>
  <path d="M1150 318H1145" stroke="#6EE7B7" stroke-width="3" stroke-linecap="round"/>
</svg>
